<svg id="eB8PwMFU7Cu1" xmlns="http://www.w3.org/2000/svg" xmlns:xlink="http://www.w3.org/1999/xlink" viewBox="0 0 300 300" shape-rendering="geometricPrecision" text-rendering="geometricPrecision"><g><path d="M0,65.04Q0,71.28,4.4,75.6t10.64,4.4h50q6.16,0,10.56-4.4t4.4-10.56v-50Q80,8.8,75.6,4.4t-10.56-4.4h-50Q8.8,0,4.4,4.4t-4.4,10.64v50Zm10,0v-50q0-2.08,1.44-3.52t3.6-1.52h50q2,0,3.52,1.52t1.44,3.52v50q0,2.08-1.44,3.52t-3.52,1.44h-50q-2.08,0-3.6-1.44t-1.44-3.52ZM15.04,60q0,2.08,1.44,3.6t3.52,1.44h40q2.08,0,3.52-1.44t1.52-3.6v-2.32q-.56-1.12-2.8-6.72t-4-8.96-3.2-5.28q-1.36-1.44-2.8-1.52t-2.88.96-2.88,2.8-2.96,3.92-2.88,4.24-2.88,4-2.72,2.96-2.72,1.12q-1.44,0-4.16-3.6-.4-.48-1.2-1.52-2.8-3.76-4-4.56-1.92-1.28-2.96.88-.56,1.28-2.32,5.6t-2.64,6.4v1.6Zm0-37.44q0,3.12,2.16,5.28t5.28,2.16t5.36-2.16t2.16-5.28-2.16-5.36-5.36-2.16-5.28,2.16-2.16,5.36Z" transform="translate(81.23888 141.12)"/><path d="M80.59888,155.04c0-4.16,1.46667-7.70667,4.4-10.64s6.48-4.4,10.64-4.4h50c4.10667,0,7.62667,1.46667,10.56,4.4s4.4,6.48,4.4,10.64v50c0,4.10667-1.46667,7.62667-4.4,10.56s-6.45333,4.4-10.56,4.4h-50c-4.16-.05333-7.70667-1.52-10.64-4.4s-4.4-6.4-4.4-10.56v-50Zm11.44,53.52c1.01333.96,2.21333,1.44,3.6,1.44h50c1.38667,0,2.56-.48,3.52-1.44s1.44-2.13333,1.44-3.52v-50c.05333-1.33333-.42667-2.50667-1.44-3.52s-2.18667-1.52-3.52-1.52h-50c-1.44.05333-2.64.56-3.6,1.52s-1.44,2.13333-1.44,3.52v50c-.05333,1.38667.42667,2.56,1.44,3.52Zm3.6-10.16c.58667-1.38667,1.46667-3.52,2.64-6.4s1.94667-4.74667,2.32-5.6c.69333-1.44,1.68-1.73333,2.96-.88.8.53333,2.13333,2.05333,4,4.56.53333.69333.93333,1.2,1.2,1.52c1.81333,2.4,3.2,3.6,4.16,3.6c1.01333-.05333,1.92-.42667,2.72-1.12s1.70667-1.68,2.72-2.96s1.97333-2.61333,2.88-4s1.86667-2.8,2.88-4.24s2-2.74667,2.96-3.92s1.92-2.10667,2.88-2.8s1.92-1.01333,2.88-.96s1.89333.56,2.8,1.52c.96,1.28,2.02667,3.04,3.2,5.28s2.50667,5.22667,4,8.96s2.42667,5.97333,2.8,6.72v2.32c-.05333,1.44-.56,2.64-1.52,3.6s-2.13333,1.44-3.52,1.44h-40c-1.38667.05333-2.56-.42667-3.52-1.44s-1.44-2.21333-1.44-3.6v-1.6Zm2.16-41.2c1.33333-1.38667,3.09333-2.10667,5.28-2.16s3.97333.66667,5.36,2.16s2.10667,3.28,2.16,5.36-.66667,3.84-2.16,5.28-3.28,2.16-5.36,2.16-3.84-.72-5.28-2.16-2.16-3.2-2.16-5.28c.10667-2.18667.82667-3.97333,2.16-5.36Z" transform="translate(49.40112-51.04)"/></g></svg>
